<?xml version="1.0" encoding="UTF-8"?>
<!DOCTYPE svg PUBLIC "-//W3C//DTD SVG 1.1//EN" "http://www.w3.org/Graphics/SVG/1.1/DTD/svg11.dtd">
<!-- Creator: CorelDRAW 2019 (64 Bit) -->
<svg xmlns="http://www.w3.org/2000/svg" xml:space="preserve" width="1300mm" height="1300mm" version="1.1" style="shape-rendering:geometricPrecision; text-rendering:geometricPrecision; image-rendering:optimizeQuality; fill-rule:evenodd; clip-rule:evenodd"
viewBox="0 0 130000 130000"
 xmlns:xlink="http://www.w3.org/1999/xlink">
 <defs>
  <style type="text/css">
   <![CDATA[
    .str0 {stroke:#4FB0BB;stroke-width:846.67;stroke-miterlimit:22.9256}
    .fil10 {fill:none}
    .fil11 {fill:#F8D331}
    .fil7 {fill:white}
    .fil4 {fill:#FEFEFE;fill-rule:nonzero}
    .fil3 {fill:#EFB1B7;fill-rule:nonzero}
    .fil1 {fill:#EFB1B7;fill-rule:nonzero}
    .fil0 {fill:#ED9C9E;fill-rule:nonzero}
    .fil6 {fill:#E78888;fill-rule:nonzero}
    .fil2 {fill:#E67877;fill-rule:nonzero}
    .fil8 {fill:#E67877;fill-rule:nonzero}
    .fil5 {fill:black;fill-rule:nonzero}
    .fil9 {fill:#4FB0BB;fill-rule:nonzero}
   ]]>
  </style>
 </defs>
 <g id="Camada_x0020_1">
  <metadata id="CorelCorpID_0Corel-Layer"/>
  <path class="fil0" d="M90940.16 53506.9c0,0 9455.85,13141.09 11679.27,40441.75 -26472.73,9195.8 -50918.32,9472.75 -73148.28,0 1184.08,-26624.51 7540.5,-40441.75 7540.5,-40441.75 10746.76,-9171.35 26964.6,-9171.35 26964.6,-9171.35 0,0 16217.12,0 26963.91,9171.35z"/>
  <path class="fil0" d="M42689.91 50820.86l-10110.53 21548.91c-23789.71,-8491.3 -4019.37,-28467.25 -3946.64,-32249.98 3814.37,775.16 2192.56,11889.38 14057.17,10701.07z"/>
  <path class="fil1" d="M85366.45 50820.86l10110.53 21548.91c23789.71,-8491.3 4019.37,-28467.25 3946.64,-32249.98 -3814.37,775.16 -2192.56,11889.38 -14057.17,10701.07z"/>
  <path class="fil2" d="M33542.67 62671.88c-280.9,65.61 -585.92,-41.65 -759.08,-293.65 -3462.38,-5034.13 -8193.51,-2557.24 -8392.68,-2449.47 -350,189.08 -787.8,59.77 -977.62,-289.2 -190.27,-349.35 -63.09,-785.8 285.52,-977.12 60.27,-33.52 6062.36,-3226.08 10273.87,2897.71 225.98,328.42 142.9,777.8 -185.64,1003.8 -76.18,52.27 -159.27,88.06 -244.37,107.93z"/>
  <path class="fil2" d="M32893.56 61824.16c-88.34,20.63 -182.55,25.03 -278.04,9.8 -5236.81,-836.87 -7063.8,1451.29 -7138.68,1549.46 -240.92,313.25 -692.04,377.65 -1008.3,140.61 -315.93,-237.23 -384.53,-682.24 -150.6,-1000.82 93.32,-127.06 2354.9,-3100.61 8525.51,-2113.96 393.71,62.46 661.66,432.43 598.85,826.21 -47.77,297.97 -271.77,524.01 -548.74,588.7z"/>
  <path class="fil2" d="M94777.24 61451.15c-85.35,-16.39 -169.32,-48.77 -248.45,-98.16 -336.3,-212.63 -437.59,-658.45 -224.8,-995.57 3965.59,-6285.84 10089.26,-3333.25 10150.53,-3302.57 356.86,177.54 502.37,610.89 324.44,967.19 -177.1,356.46 -609.12,501.37 -965.73,325.09 -208.79,-102.06 -5030.37,-2383.71 -8288.67,2780.62 -163.51,258.57 -463.57,377.92 -747.32,323.4z"/>
  <path class="fil2" d="M95392.72 60578.46c-279.31,-53.66 -512.09,-270.64 -571.63,-566.49 -78.36,-390.99 174.72,-771.28 565.64,-849.29 6126.62,-1230 8504.3,1651.27 8602.58,1774.53 248.41,311.64 197.06,765.72 -114.49,1014.28 -309.97,246.67 -761.14,197.21 -1010.08,-109.8 -88.62,-106.01 -2008.51,-2305.3 -7194.27,-1264.54 -94.7,19.02 -188.31,18.5 -277.75,1.31z"/>
  <path class="fil3" d="M51254.76 46285.72c-11557.25,5141.43 -25766.3,25545.12 -18730.21,47662.93 22235.46,9100.78 44688.82,8779.81 67315.7,956.89 -310.81,-4171.72 -295.11,-5948.61 1176.56,-4222.95 244.33,1037.8 421.07,2265.18 544.31,3614.42 317.09,-114.89 634.15,-230.56 951.3,-348.36 -1453.66,-18551.55 -5709.58,-35397.02 -13246.17,-41767.21 -8778.1,-7419.47 -26135.01,-9947.44 -38011.49,-5895.72z"/>
  <path class="fil4" d="M68191.72 45842.72c0,0 -12010.39,-963.85 -15869.72,2827.86 -2886.19,2835.72 12667.8,-4935.8 31172.64,3344.79 5783.7,2588.44 -1720.31,-5420 -15302.92,-6172.65z"/>
  <path class="fil4" d="M48177.54 49738.48c511.57,-102.38 1651.85,-381.68 1754.36,131.56 102.86,511.92 -871.11,1621.97 -1382.68,1724.48 -511.93,102.38 -1010.04,-229.78 -1112.9,-742.18 -102.51,-513.23 228.81,-1011.35 741.22,-1113.86z"/>
  <path class="fil4" d="M100655.67 86653.7c-20.86,601.03 -10.38,1952.89 -612.15,1931.71 -601.47,-20.44 -1587,-1406.52 -1566.06,-2006.9 20.86,-601.03 525,-1070.99 1126.69,-1050.46 601.95,20.99 1072.55,525.05 1051.52,1125.65z"/>
  <g id="_1531051399344">
   <path class="fil0" d="M77162.94 84803.43c0,2765.24 -4915.09,5006.28 -10978.92,5006.28 -6063.47,0 -10979.04,-2241.04 -10979.04,-5006.28 0,-2764.88 4915.57,1888.65 10979.04,1888.65 6063.83,0 10978.92,-4653.53 10978.92,-1888.65z"/>
   <path class="fil5" d="M64657.77 81907.11c0,1458.64 -687.18,2641.31 -1535.07,2641.31 -848.01,0 -1535.07,-1182.67 -1535.07,-2641.31 0,-1458.99 687.06,-2641.3 1535.07,-2641.3 847.89,0 1535.07,1182.31 1535.07,2641.3z"/>
   <path class="fil5" d="M70780.41 81907.11c0,1458.64 -687.17,2641.31 -1535.07,2641.31 -847.53,0 -1535.06,-1182.67 -1535.06,-2641.31 0,-1458.99 687.53,-2641.3 1535.06,-2641.3 847.9,0 1535.07,1182.31 1535.07,2641.3z"/>
   <path class="fil2" d="M66184.02 75260.4c-6232.29,0 -11302.86,2981.44 -11302.86,6646.71 0,3664.09 5070.57,6645.53 11302.86,6645.53 6232.65,0 11302.74,-2981.44 11302.74,-6645.53 0,-3665.27 -5070.09,-6646.71 -11302.74,-6646.71zm0 14735.39c-7028.16,0 -12745.9,-3628.72 -12745.9,-8088.68 0,-4460.66 5717.74,-8089.39 12745.9,-8089.39 7028.16,0 12745.9,3628.73 12745.9,8089.39 0,4459.96 -5717.74,8088.68 -12745.9,8088.68z"/>
   <path class="fil4" d="M65924.01 75993.29c0,0 -5921.44,-475.49 -7823.55,1393.51 -1423.03,1398.16 6244.79,-2433.08 15366.97,1649.24 2851.43,1275.53 -847.54,-2672.38 -7543.42,-3042.75z"/>
  </g>
  <g id="_1531051395600">
   <path class="fil5" d="M54376.61 70424.13c0,3731.7 -1901.62,6756.47 -4248.15,6756.47 -2346.06,0 -4248.28,-3024.77 -4248.28,-6756.47 0,-3731.23 1902.22,-6756.01 4248.28,-6756.01 2346.53,0 4248.15,3024.78 4248.15,6756.01z"/>
   <path class="fil4" d="M52109.97 67988.19c0,970.16 -786.7,1756.38 -1756.38,1756.38 -969.81,0 -1756.03,-786.22 -1756.03,-1756.38 0,-970.16 786.22,-1756.39 1756.03,-1756.39 969.68,0 1756.38,786.23 1756.38,1756.39z"/>
  </g>
  <g id="_1530906776288">
   <g>
    <path class="fil6" d="M100076.76 80438.49c0,3845.58 -3117.44,6963.39 -6963.39,6963.39 -3845.95,0 -6963.39,-3117.81 -6963.39,-6963.39 0,-3845.95 3117.44,-6963.39 6963.39,-6963.39 3845.95,0 6963.39,3117.44 6963.39,6963.39z"/>
    <path class="fil2" d="M90068.74 81484.96c-145.24,0 -291.22,-55.54 -402.11,-166.81 -222.08,-222.08 -222.08,-582.16 0,-803.95l1051.15 -1051.43c222.45,-222.45 582.53,-222.45 804.32,0 222.35,222.07 222.35,581.87 0,803.94l-1051.25 1051.44c-111.18,111.27 -256.51,166.81 -402.11,166.81z"/>
    <path class="fil2" d="M92899.93 81484.96c-145.6,0 -291.31,-55.54 -402.11,-166.81 -222.44,-222.08 -222.44,-582.16 0,-803.95l1051.16 -1051.43c222.35,-222.45 582.52,-222.45 804.22,0 222.07,222.07 222.07,581.87 0,803.94l-1051.16 1051.44c-111.17,111.27 -256.78,166.81 -402.11,166.81z"/>
    <path class="fil2" d="M95679.15 81484.96c-145.32,0 -290.93,-55.54 -401.83,-166.81 -222.44,-222.08 -222.44,-582.16 0,-803.95l1050.88 -1051.43c222.35,-222.45 582.43,-222.45 804.22,0 222.45,222.07 222.45,581.87 0,803.94l-1051.15 1051.44c-111.27,111.27 -256.51,166.81 -402.12,166.81z"/>
   </g>
   <g>
    <path class="fil6" d="M32291.29 80438.49c0,3845.58 3117.44,6963.39 6963.39,6963.39 3845.95,0 6963.39,-3117.81 6963.39,-6963.39 0,-3845.95 -3117.44,-6963.39 -6963.39,-6963.39 -3845.95,0 -6963.39,3117.44 -6963.39,6963.39z"/>
    <path class="fil2" d="M42299.32 81484.96c145.23,0 291.21,-55.54 402.11,-166.81 222.07,-222.08 222.07,-582.16 0,-803.95l-1051.16 -1051.43c-222.45,-222.45 -582.53,-222.45 -804.31,0 -222.36,222.07 -222.36,581.87 0,803.94l1051.24 1051.44c111.18,111.27 256.51,166.81 402.12,166.81z"/>
    <path class="fil2" d="M39468.12 81484.96c145.61,0 291.31,-55.54 402.11,-166.81 222.45,-222.08 222.45,-582.16 0,-803.95l-1051.16 -1051.43c-222.35,-222.45 -582.52,-222.45 -804.22,0 -222.07,222.07 -222.07,581.87 0,803.94l1051.16 1051.44c111.17,111.27 256.78,166.81 402.11,166.81z"/>
    <path class="fil2" d="M36688.9 81484.96c145.32,0 290.93,-55.54 401.83,-166.81 222.44,-222.08 222.44,-582.16 0,-803.95l-1050.88 -1051.43c-222.35,-222.45 -582.43,-222.45 -804.22,0 -222.45,222.07 -222.45,581.87 0,803.94l1051.16 1051.44c111.27,111.27 256.5,166.81 402.11,166.81z"/>
   </g>
  </g>
  <path class="fil7" d="M101016.81 90682.59c-1469.15,-1722.71 -1485.72,66.53 -1176.56,4222.95 2016.34,-687.4 2207.21,-759.5 2207.21,-759.5 -46.06,-155.81 -394.6,-761.78 -1030.65,-3463.45z"/>
  <path class="fil8" d="M52247.28 89861.72c-321.27,-140.03 -468.17,-514.06 -328.15,-835.33 140.02,-321.27 514.06,-468.18 835.33,-328.16 4812.82,2095.57 9436.69,3028.29 13899.44,2970.86 4460.76,-57.39 8770.31,-1104.43 12954.72,-2968.36 319.89,-142.79 695.01,0.81 837.8,320.69 142.79,319.89 -0.81,695.01 -320.7,837.8 -4338.14,1932.43 -8814.15,3018.04 -13456.91,3077.75 -4640.83,59.75 -9438.92,-905.74 -14421.53,-3075.25z"/>
  <g id="_1530906772544">
   <path class="fil5" d="M77991.55 70424.13c0,3731.7 1901.63,6756.47 4248.16,6756.47 2346.05,0 4248.27,-3024.77 4248.27,-6756.47 0,-3731.23 -1902.22,-6756.01 -4248.27,-6756.01 -2346.53,0 -4248.16,3024.78 -4248.16,6756.01z"/>
   <path class="fil4" d="M80258.2 67988.19c0,970.16 786.7,1756.38 1756.38,1756.38 969.8,0 1756.03,-786.22 1756.03,-1756.38 0,-970.16 -786.23,-1756.39 -1756.03,-1756.39 -969.68,0 -1756.38,786.23 -1756.38,1756.39z"/>
  </g>
  <g id="_1530906771328">
   <path class="fil9" d="M35418.47 50706.52c3904.16,-9883.31 10749.29,-16396.86 18524.13,-19510.88 3520.95,-1410.22 7234.26,-2121.46 10953.47,-2131.11 3719.63,-9.65 7437.94,681.57 10968.24,2076.12 7805.42,3083.38 14711.41,9596.23 18703.12,19562.38l-1649.74 661.3c-3794.26,-9473.16 -10330.87,-15652.9 -17707.71,-18566.97 -3328.93,-1314.99 -6825.25,-1966.85 -10313.91,-1957.77 -3489.13,9.08 -6978.18,678.47 -10292.17,2005.79 -7341.99,2940.64 -13817.23,9119.9 -17528.72,18515.47l-1656.71 -654.33z"/>
   <path class="fil9" d="M35784.42 50598.64c629.67,-671.46 1266.53,-1322.96 1910.15,-1954.23 8436.72,-8274.74 17533.95,-12518.53 26790.66,-12583.27 9250.61,-64.67 18625.1,4047.34 27621.55,12483.9 695.27,651.98 1391.45,1333.22 2088.23,2043.65l-904.9 889.99c-679.1,-692.39 -1363.71,-1362.05 -2053.42,-2008.83 -8748.64,-8204.17 -17825.06,-12203.19 -26746.47,-12140.83 -8915.29,62.36 -17711.76,4183.72 -25905.66,12220.3 -625.64,613.64 -1250.86,1253.51 -1875.33,1919.41l-924.81 -870.09z"/>
  </g>
  <g id="_1530906765664">
   <path class="fil10 str0" d="M102846.35 70047.43c974.93,13243.19 -3893.63,22713.35 -18125.62,24114.34"/>
   <rect class="fil11 str0" transform="matrix(2.99242 -0.29303 0.29303 2.99242 80764.3 92136.4)" width="2116.67" height="1587.5" rx="1000" ry="1000"/>
  </g>
  <g id="_1530906764480">
   <rect class="fil11 str0" transform="matrix(2.69163 -1.34 1.34 2.69163 88928 51271.9)" width="2592.92" height="7990.42" rx="2000" ry="2000"/>
   <path class="fil11 str0" d="M101930.11 58217.76l3446.55 6922.84c3823.38,-1903.48 5379.77,-6546 3476.29,-10369.39 -1903.47,-3823.38 -6546,-5379.77 -10369.38,-3476.29l3446.54 6922.84z"/>
  </g>
  <g id="_1530906759200">
   <rect class="fil11 str0" transform="matrix(-2.69163 -1.34 -1.34 2.69163 41057.8 51271.9)" width="2592.92" height="7990.42" rx="2000" ry="2000"/>
   <path class="fil11 str0" d="M28055.76 58217.76l-3446.55 6922.84c-3823.38,-1903.48 -5379.77,-6546 -3476.29,-10369.39 1903.47,-3823.38 6546,-5379.77 10369.38,-3476.29l-3446.54 6922.84z"/>
  </g>
 </g>
</svg>
